<svg id="visual" viewBox="0 0 900 675" width="900" height="675" xmlns="http://www.w3.org/2000/svg" xmlns:xlink="http://www.w3.org/1999/xlink" version="1.1"><rect x="0" y="0" width="900" height="675" fill="#ffffff"></rect><g transform="translate(425.3501219596051 282.4239559967217)"><path d="M183.7 -248.8C242.7 -247.9 298.3 -204.8 306.5 -150.6C314.8 -96.4 275.7 -31.2 253 27.2C230.3 85.5 224 137.1 199.9 183.7C175.8 230.3 134 272 78.6 305.5C23.3 339 -45.5 364.3 -114 358C-182.5 351.8 -250.7 314 -257.7 252.9C-264.8 191.7 -210.7 107.1 -189.1 46.7C-167.5 -13.8 -178.3 -50.1 -177.5 -93.1C-176.6 -136.1 -164 -185.8 -132.5 -199.3C-100.9 -212.7 -50.5 -189.9 5.9 -199.1C62.4 -208.4 124.7 -249.7 183.7 -248.8" fill="#f3f3f3"></path></g></svg>