<svg id="visual" viewBox="0 0 900 675" width="900" height="675" xmlns="http://www.w3.org/2000/svg" xmlns:xlink="http://www.w3.org/1999/xlink" version="1.1"><rect x="0" y="0" width="900" height="675" fill="#ffffff"></rect><path d="M0 440L30 442.5C60 445 120 450 180 451.5C240 453 300 451 360 458.8C420 466.7 480 484.3 540 485.2C600 486 660 470 720 464C780 458 840 462 870 464L900 466L900 676L870 676C840 676 780 676 720 676C660 676 600 676 540 676C480 676 420 676 360 676C300 676 240 676 180 676C120 676 60 676 30 676L0 676Z" fill="#f4eeeb"></path><path d="M0 563L30 562.8C60 562.7 120 562.3 180 556.2C240 550 300 538 360 530.2C420 522.3 480 518.7 540 523.2C600 527.7 660 540.3 720 543C780 545.7 840 538.3 870 534.7L900 531L900 676L870 676C840 676 780 676 720 676C660 676 600 676 540 676C480 676 420 676 360 676C300 676 240 676 180 676C120 676 60 676 30 676L0 676Z" fill="#f4eeeb"></path><path d="M0 591L30 599C60 607 120 623 180 629.5C240 636 300 633 360 629C420 625 480 620 540 611.5C600 603 660 591 720 593.5C780 596 840 613 870 621.5L900 630L900 676L870 676C840 676 780 676 720 676C660 676 600 676 540 676C480 676 420 676 360 676C300 676 240 676 180 676C120 676 60 676 30 676L0 676Z" fill="#f4eeeb"></path></svg>