<svg id="visual" viewBox="0 0 960 540" width="960" height="540" xmlns="http://www.w3.org/2000/svg" xmlns:xlink="http://www.w3.org/1999/xlink" version="1.1"><rect x="0" y="0" width="960" height="540" fill="#ffffff"></rect><path d="M0 473L40 452.2C80 431.3 160 389.7 240 386.7C320 383.7 400 419.3 480 432.7C560 446 640 437 720 419.2C800 401.3 880 374.7 920 361.3L960 348L960 0L920 0C880 0 800 0 720 0C640 0 560 0 480 0C400 0 320 0 240 0C160 0 80 0 40 0L0 0Z" fill="#e1d8d8"></path><path d="M0 137L40 167.5C80 198 160 259 240 240.5C320 222 400 124 480 103.7C560 83.3 640 140.7 720 167.2C800 193.7 880 189.3 920 187.2L960 185L960 0L920 0C880 0 800 0 720 0C640 0 560 0 480 0C400 0 320 0 240 0C160 0 80 0 40 0L0 0Z" fill="#f6e6dd"></path></svg>